<svg width="16" height="16" viewBox="0 0 16 16" fill="none" xmlns="http://www.w3.org/2000/svg">
<path d="M2.66668 9.33377C2.54053 9.3342 2.41684 9.29882 2.30998 9.23175C2.20313 9.16468 2.1175 9.06867 2.06305 8.95487C2.00859 8.84107 1.98754 8.71416 2.00235 8.58887C2.01715 8.46359 2.0672 8.34507 2.14668 8.2471L8.74668 1.4471C8.79619 1.38996 8.86365 1.35134 8.938 1.33759C9.01235 1.32384 9.08917 1.33578 9.15584 1.37144C9.22251 1.4071 9.27507 1.46437 9.30491 1.53384C9.33474 1.60331 9.34007 1.68087 9.32002 1.75377L8.04002 5.7671C8.00227 5.86812 7.9896 5.97678 8.00308 6.08377C8.01656 6.19076 8.05579 6.29289 8.11741 6.38139C8.17903 6.46988 8.2612 6.54211 8.35687 6.59187C8.45253 6.64164 8.55885 6.66745 8.66668 6.6671H13.3333C13.4595 6.66667 13.5832 6.70205 13.69 6.76912C13.7969 6.83619 13.8825 6.9322 13.937 7.046C13.9914 7.1598 14.0125 7.28671 13.9977 7.412C13.9829 7.53728 13.9328 7.6558 13.8533 7.75377L7.25335 14.5538C7.20384 14.6109 7.13638 14.6495 7.06203 14.6633C6.98768 14.677 6.91087 14.6651 6.8442 14.6294C6.77752 14.5938 6.72496 14.5365 6.69513 14.467C6.66529 14.3976 6.65996 14.32 6.68002 14.2471L7.96002 10.2338C7.99776 10.1328 8.01043 10.0241 7.99695 9.9171C7.98347 9.81011 7.94424 9.70798 7.88262 9.61948C7.821 9.53099 7.73883 9.45876 7.64317 9.40899C7.5475 9.35923 7.44119 9.33342 7.33335 9.33377H2.66668Z" stroke="#0A0A0A" stroke-width="1.33333" stroke-linecap="round" stroke-linejoin="round"/>
</svg>
