<svg width="16" height="16" viewBox="0 0 16 16" fill="none" xmlns="http://www.w3.org/2000/svg">
<path d="M8.39065 1.72367C8.14066 1.47361 7.80157 1.33308 7.44798 1.33301H2.66665C2.31302 1.33301 1.97389 1.47348 1.72384 1.72353C1.47379 1.97358 1.33331 2.31272 1.33331 2.66634V7.44767C1.33339 7.80127 1.47391 8.14035 1.72398 8.39034L7.52665 14.193C7.82966 14.4941 8.23948 14.6631 8.66665 14.6631C9.09382 14.6631 9.50364 14.4941 9.80665 14.193L14.1933 9.80634C14.4944 9.50333 14.6634 9.09351 14.6634 8.66634C14.6634 8.23917 14.4944 7.82935 14.1933 7.52634L8.39065 1.72367Z" stroke="#0A0A0A" stroke-width="1.33333" stroke-linecap="round" stroke-linejoin="round"/>
<path d="M5.00002 5.33366C5.18412 5.33366 5.33335 5.18442 5.33335 5.00033C5.33335 4.81623 5.18412 4.66699 5.00002 4.66699C4.81593 4.66699 4.66669 4.81623 4.66669 5.00033C4.66669 5.18442 4.81593 5.33366 5.00002 5.33366Z" fill="#0A0A0A" stroke="#0A0A0A" stroke-width="1.33333" stroke-linecap="round" stroke-linejoin="round"/>
</svg>
