<svg width="793" height="295" viewBox="0 0 793 295" fill="none" xmlns="http://www.w3.org/2000/svg">
<path d="M726.461 132.527C763.057 132.527 792.724 102.86 792.724 66.2637C792.724 29.6673 763.057 0 726.461 0C689.864 0 660.197 29.6673 660.197 66.2637C660.197 102.86 689.864 132.527 726.461 132.527Z" fill="#FF5A00"/>
<path d="M611.123 132.583L664.467 11.8662C656.338 6.38306 647.105 2.74977 637.42 1.22251C627.734 -0.304744 617.831 0.311222 608.409 3.02698C598.988 5.74274 590.277 10.4922 582.89 16.9405C575.503 23.3887 569.621 31.3788 565.658 40.3475C561.694 49.3162 559.747 59.045 559.952 68.8481C560.158 78.6513 562.511 88.29 566.846 97.0849C571.181 105.88 577.393 113.617 585.043 119.75C592.693 125.883 601.596 130.264 611.123 132.583Z" fill="#2ED0FF"/>
<path d="M511.867 132.361L569.092 1.05334C566.096 0.647799 563.076 0.444021 560.053 0.443381C544.709 0.402496 529.723 5.08517 517.132 13.8555C504.541 22.6259 494.953 35.0589 489.673 49.4663C484.392 63.8737 483.673 79.5574 487.614 94.3874C491.554 109.218 499.964 122.475 511.7 132.361H511.867Z" fill="#145FF5"/>
<path d="M56.338 269.324H31.8842C31.2668 269.395 30.6438 269.252 30.1191 268.919C29.5944 268.586 29.1996 268.083 29.0008 267.495C28.9188 266.958 28.996 266.41 29.2227 265.917C29.4493 265.424 29.8156 265.009 30.2761 264.722C30.6088 264.389 100.588 207.109 101.641 206C105.114 202.505 107.798 198.307 109.515 193.69C110.88 189.881 111.592 185.869 111.622 181.823C111.607 178.677 111.102 175.553 110.125 172.563C107.941 167.523 104.332 163.232 99.7407 160.218C95.1497 157.203 89.7775 155.596 84.2852 155.595H3.32705V181.269H79.7382C81.5681 181.269 82.3444 181.934 82.5108 182.932C82.5202 183.447 82.4158 183.957 82.2049 184.427C81.994 184.897 81.6819 185.314 81.2909 185.649C80.6254 186.315 68.4817 196.185 62.0494 201.453L13.0864 241.488C8.62412 245.152 5.07433 249.803 2.71709 255.074C2.44359 255.575 2.2028 256.094 1.99623 256.626C0.733552 259.844 0.0574663 263.262 0 266.718C0 274.219 2.97948 281.412 8.28299 286.715C13.5865 292.019 20.7796 294.998 28.2799 294.998H115.504V269.324H56.338Z" fill="#FF5A00"/>
<path d="M740.158 155.54H712.932V294.998H740.158V155.54Z" fill="#FF5A00"/>
<path d="M213.264 155.54C213.264 155.54 213.264 226.628 213.264 239.659C213.192 247.667 210.013 255.335 204.395 261.044C198.778 266.753 191.163 270.057 183.156 270.258C175.149 270.46 167.378 267.543 161.48 262.124C155.583 256.704 152.022 249.206 151.547 241.211C151.547 220.583 151.547 155.207 151.547 155.54H124.21V233.892C124.21 278.585 153.876 294.888 182.323 294.888C210.769 294.888 240.934 276.478 240.435 235.722C240.435 232.006 240.435 155.429 240.435 155.429L213.264 155.54Z" fill="#FF5A00"/>
<path d="M307.364 155.54C278.917 155.54 248.807 174.005 249.307 214.706C249.307 218.476 249.307 294.998 249.307 294.998H276.533C276.533 294.998 276.533 223.966 276.533 210.935C276.876 203.105 280.177 195.697 285.77 190.207C291.363 184.716 298.832 181.553 306.667 181.356C314.502 181.159 322.119 183.943 327.982 189.145C333.844 194.347 337.514 201.579 338.25 209.382C338.25 230.01 338.25 295.386 338.25 294.998H365.476V216.702C365.531 171.898 335.865 155.54 307.364 155.54Z" fill="#FF5A00"/>
<path d="M645.946 155.54C637.639 155.4 629.395 157.012 621.752 160.269C614.109 163.527 607.238 168.359 601.586 174.448C596.004 168.27 589.145 163.379 581.485 160.114C573.826 156.849 565.548 155.288 557.225 155.54C528.779 155.54 498.669 174.005 499.168 214.706C499.168 218.476 499.168 294.998 499.168 294.998H526.394C526.394 294.998 526.394 223.966 526.394 210.935C527.142 203.432 530.603 196.459 536.129 191.328C541.654 186.197 548.863 183.26 556.401 183.07C563.939 182.879 571.287 185.448 577.065 190.293C582.843 195.138 586.653 201.926 587.778 209.382C587.778 212.654 587.778 217.035 587.778 222.136C587.778 239.658 587.778 282.522 587.778 292.78V294.998H615.005C615.005 294.998 615.005 223.966 615.005 210.935C615.076 202.926 618.256 195.258 623.874 189.549C629.491 183.84 637.106 180.537 645.113 180.335C653.119 180.134 660.891 183.05 666.788 188.47C672.686 193.889 676.247 201.387 676.721 209.382C676.721 230.01 676.721 295.387 676.721 294.998H704.225V216.702C704.225 171.898 674.392 155.54 645.946 155.54Z" fill="#FF5A00"/>
<path d="M431.796 155.54C406.122 155.54 379.229 170.567 374.515 203.394H401.963C403.904 196.519 408.156 190.524 414.002 186.418C419.848 182.313 426.931 180.349 434.056 180.857C441.181 181.365 447.913 184.314 453.118 189.207C458.322 194.1 461.681 200.638 462.626 207.719V209.16L414.772 208.772C403.649 209.172 393.115 213.872 385.388 221.882C377.66 229.893 373.342 240.589 373.342 251.719C373.342 262.849 377.66 273.545 385.388 281.556C393.115 289.566 403.649 294.266 414.772 294.666H420.318H449.817C454.611 294.267 459.146 292.321 462.737 289.12V294.998H489.908V216.702C489.964 171.898 460.242 155.54 431.796 155.54ZM463.07 255.351C462.997 260.46 460.913 265.333 457.269 268.915C453.625 272.496 448.716 274.497 443.607 274.481H416.99C413.722 274.46 410.497 273.732 407.538 272.345C404.578 270.958 401.954 268.947 399.846 266.449C397.738 263.951 396.196 261.026 395.327 257.875C394.458 254.725 394.281 251.423 394.81 248.198C395.84 242.831 398.728 237.999 402.967 234.551C407.206 231.103 412.525 229.26 417.989 229.345H463.07V255.351Z" fill="#FF5A00"/>
</svg>
